# Blender v3.1.2 OBJ File: ''
# www.blender.org
mtllib Button_wall v31.mtl
o Button_wall_v3
v 2.500000 -2.500000 -0.500000
v -2.500000 -2.500000 -0.500000
v 2.500000 2.500000 -0.500000
v -2.500000 2.500000 -0.500000
v 2.500000 -2.500000 -0.000000
v -2.500000 -2.500000 -0.000000
v -2.500000 2.500000 0.000000
v 2.500000 2.500000 0.000000
vt 0.000000 0.000000
vt 5.000000 0.000000
vt 0.000000 0.500000
vt 5.000000 0.500000
vt 0.000000 0.000000
vt 5.000000 0.000000
vt 0.000000 0.500000
vt 5.000000 0.500000
vt 0.000000 0.000000
vt 5.000000 0.000000
vt 0.000000 0.500000
vt 5.000000 0.500000
vt 0.000000 0.000000
vt 5.000000 0.000000
vt 0.000000 0.500000
vt 5.000000 0.500000
vt -2.500000 -2.500000
vt 2.500000 -2.500000
vt -2.500000 2.500000
vt 2.500000 2.500000
vt 0.001484 -0.008926
vt 1.000214 -0.008926
vt 0.001484 0.989804
vt 1.000214 0.989804
vn 0.0000 -1.0000 0.0000
vn -1.0000 -0.0000 0.0000
vn 0.0000 1.0000 0.0000
vn 1.0000 -0.0000 0.0000
vn 0.0000 -0.0000 1.0000
vn 0.0000 0.0000 -1.0000
usemtl Stahl_-_satiniert
s 1
f 5/1/1 6/2/1 1/3/1
f 1/3/1 6/2/1 2/4/1
f 6/5/2 7/6/2 2/7/2
f 2/7/2 7/6/2 4/8/2
f 7/9/3 8/10/3 4/11/3
f 4/11/3 8/10/3 3/12/3
f 8/13/4 5/14/4 3/15/4
f 3/15/4 5/14/4 1/16/4
f 6/17/5 5/18/5 7/19/5
f 7/19/5 5/18/5 8/20/5
usemtl Material.001
f 1/21/6 2/22/6 3/23/6
f 3/23/6 2/22/6 4/24/6
